<mxfile host="app.diagrams.net" agent="Mozilla/5.0 (X11; Linux x86_64) AppleWebKit/537.36 (KHTML, like Gecko) Chrome/136.0.0.0 Safari/537.36" version="27.1.5">
  <diagram name="Page-1" id="TVgFUilD2srGh-VepdHf">
    <mxGraphModel dx="1360" dy="759" grid="1" gridSize="10" guides="1" tooltips="1" connect="1" arrows="1" fold="1" page="1" pageScale="1" pageWidth="827" pageHeight="1169" math="0" shadow="0">
      <root>
        <mxCell id="0" />
        <mxCell id="1" parent="0" />
        <mxCell id="p7lO5OYJ3wlESnmV-40V-10" style="edgeStyle=orthogonalEdgeStyle;rounded=0;orthogonalLoop=1;jettySize=auto;html=1;entryX=0.5;entryY=0;entryDx=0;entryDy=0;" parent="1" source="p7lO5OYJ3wlESnmV-40V-1" target="p7lO5OYJ3wlESnmV-40V-9" edge="1">
          <mxGeometry relative="1" as="geometry" />
        </mxCell>
        <mxCell id="p7lO5OYJ3wlESnmV-40V-1" value="&lt;font style=&quot;font-size: 16px;&quot;&gt;ps&lt;sub&gt;1&lt;/sub&gt;&lt;/font&gt;" style="ellipse;whiteSpace=wrap;html=1;aspect=fixed;" parent="1" vertex="1">
          <mxGeometry x="217.5" y="20" width="50" height="50" as="geometry" />
        </mxCell>
        <mxCell id="0Ud-b7ITfNYMbjHYwRo5-2" style="edgeStyle=orthogonalEdgeStyle;rounded=0;orthogonalLoop=1;jettySize=auto;html=1;entryX=0.5;entryY=0;entryDx=0;entryDy=0;" edge="1" parent="1" source="p7lO5OYJ3wlESnmV-40V-2" target="0Ud-b7ITfNYMbjHYwRo5-1">
          <mxGeometry relative="1" as="geometry" />
        </mxCell>
        <mxCell id="p7lO5OYJ3wlESnmV-40V-2" value="&lt;font style=&quot;font-size: 16px;&quot;&gt;ps&lt;sub&gt;1&lt;/sub&gt;&lt;/font&gt;" style="ellipse;whiteSpace=wrap;html=1;aspect=fixed;" parent="1" vertex="1">
          <mxGeometry x="110" y="165" width="50" height="50" as="geometry" />
        </mxCell>
        <mxCell id="0Ud-b7ITfNYMbjHYwRo5-4" style="edgeStyle=orthogonalEdgeStyle;rounded=0;orthogonalLoop=1;jettySize=auto;html=1;entryX=0.5;entryY=0;entryDx=0;entryDy=0;" edge="1" parent="1" source="p7lO5OYJ3wlESnmV-40V-4" target="0Ud-b7ITfNYMbjHYwRo5-3">
          <mxGeometry relative="1" as="geometry" />
        </mxCell>
        <mxCell id="p7lO5OYJ3wlESnmV-40V-4" value="&lt;font style=&quot;font-size: 16px;&quot;&gt;ps&lt;sub&gt;1&lt;/sub&gt;&lt;/font&gt;" style="ellipse;whiteSpace=wrap;html=1;aspect=fixed;" parent="1" vertex="1">
          <mxGeometry x="217.5" y="165" width="50" height="50" as="geometry" />
        </mxCell>
        <mxCell id="p7lO5OYJ3wlESnmV-40V-7" value="&lt;font style=&quot;font-size: 16px;&quot;&gt;ps&lt;sub&gt;1&lt;/sub&gt;&lt;/font&gt;" style="ellipse;whiteSpace=wrap;html=1;aspect=fixed;" parent="1" vertex="1">
          <mxGeometry x="320" y="165" width="50" height="50" as="geometry" />
        </mxCell>
        <mxCell id="p7lO5OYJ3wlESnmV-40V-11" style="edgeStyle=orthogonalEdgeStyle;rounded=0;orthogonalLoop=1;jettySize=auto;html=1;entryX=0.5;entryY=0;entryDx=0;entryDy=0;" parent="1" source="p7lO5OYJ3wlESnmV-40V-9" target="p7lO5OYJ3wlESnmV-40V-2" edge="1">
          <mxGeometry relative="1" as="geometry" />
        </mxCell>
        <mxCell id="p7lO5OYJ3wlESnmV-40V-12" style="edgeStyle=orthogonalEdgeStyle;rounded=0;orthogonalLoop=1;jettySize=auto;html=1;entryX=0.5;entryY=0;entryDx=0;entryDy=0;" parent="1" source="p7lO5OYJ3wlESnmV-40V-9" target="p7lO5OYJ3wlESnmV-40V-4" edge="1">
          <mxGeometry relative="1" as="geometry" />
        </mxCell>
        <mxCell id="p7lO5OYJ3wlESnmV-40V-13" style="edgeStyle=orthogonalEdgeStyle;rounded=0;orthogonalLoop=1;jettySize=auto;html=1;exitX=1;exitY=0.5;exitDx=0;exitDy=0;entryX=0.5;entryY=0;entryDx=0;entryDy=0;" parent="1" source="p7lO5OYJ3wlESnmV-40V-9" target="p7lO5OYJ3wlESnmV-40V-7" edge="1">
          <mxGeometry relative="1" as="geometry" />
        </mxCell>
        <mxCell id="p7lO5OYJ3wlESnmV-40V-9" value="&lt;font style=&quot;font-size: 16px;&quot;&gt;Tactician&lt;/font&gt;" style="rounded=1;whiteSpace=wrap;html=1;" parent="1" vertex="1">
          <mxGeometry x="205" y="102" width="75" height="37.5" as="geometry" />
        </mxCell>
        <mxCell id="0Ud-b7ITfNYMbjHYwRo5-1" value="&lt;font style=&quot;font-size: 16px;&quot;&gt;Tactician&lt;/font&gt;" style="rounded=1;whiteSpace=wrap;html=1;" vertex="1" parent="1">
          <mxGeometry x="95" y="240" width="80" height="40" as="geometry" />
        </mxCell>
        <mxCell id="0Ud-b7ITfNYMbjHYwRo5-3" value="&lt;font style=&quot;font-size: 16px;&quot;&gt;Tactician&lt;/font&gt;" style="rounded=1;whiteSpace=wrap;html=1;" vertex="1" parent="1">
          <mxGeometry x="202.5" y="240" width="80" height="40" as="geometry" />
        </mxCell>
        <mxCell id="0Ud-b7ITfNYMbjHYwRo5-5" value="&lt;font style=&quot;font-size: 16px;&quot;&gt;ps&lt;sub&gt;1&lt;/sub&gt;&lt;/font&gt;" style="ellipse;whiteSpace=wrap;html=1;aspect=fixed;" vertex="1" parent="1">
          <mxGeometry x="45" y="320" width="50" height="50" as="geometry" />
        </mxCell>
        <mxCell id="0Ud-b7ITfNYMbjHYwRo5-7" value="&lt;font style=&quot;font-size: 16px;&quot;&gt;ps&lt;sub&gt;1&lt;/sub&gt;&lt;/font&gt;" style="ellipse;whiteSpace=wrap;html=1;aspect=fixed;" vertex="1" parent="1">
          <mxGeometry x="110" y="320" width="50" height="50" as="geometry" />
        </mxCell>
        <mxCell id="0Ud-b7ITfNYMbjHYwRo5-8" value="&lt;font style=&quot;font-size: 16px;&quot;&gt;ps&lt;sub&gt;1&lt;/sub&gt;&lt;/font&gt;" style="ellipse;whiteSpace=wrap;html=1;aspect=fixed;" vertex="1" parent="1">
          <mxGeometry x="167.5" y="320" width="50" height="50" as="geometry" />
        </mxCell>
      </root>
    </mxGraphModel>
  </diagram>
</mxfile>
